PathFileType	4	(X/Y/Z)	/Users/itak/Documents/Research/Walk-IL/dataset/trc/00070_00006.trc
DataRate	CameraRate	NumFrames	NumMarkers	Units	OrigDataRate	OrigDataStartFrame	OrigNumFrames
100.000000	100.000000	4	53	mm	100.000000	268	715
Frame#	Time	RPSI			LPSI			L3			STRN			T10			C7			CLAV			RBAK			LBAK			LSHO			LUPA			LAEL			LAOL			LWTS			LWPS			LFRA			LIFD			LHPS			LHTS			RSHO			RUPA			RAEL			RAOL			RWTS			RWPS			RFRA			RIFD			RHTS			RHPS			RBHD			LFHD			RFHD			LBHD			LHIP			RHIP			RASI			LASI			LKNE			LTHI			LANK			LTIP			LTOE			LMT1			LMT5			LHEE			RKNE			RTHI			RANK			RTIP			RTOE			RMT1			RMT5			RHEE			
		X1	Y1	Z1	X2	Y2	Z2	X3	Y3	Z3	X4	Y4	Z4	X5	Y5	Z5	X6	Y6	Z6	X7	Y7	Z7	X8	Y8	Z8	X9	Y9	Z9	X10	Y10	Z10	X11	Y11	Z11	X12	Y12	Z12	X13	Y13	Z13	X14	Y14	Z14	X15	Y15	Z15	X16	Y16	Z16	X17	Y17	Z17	X18	Y18	Z18	X19	Y19	Z19	X20	Y20	Z20	X21	Y21	Z21	X22	Y22	Z22	X23	Y23	Z23	X24	Y24	Z24	X25	Y25	Z25	X26	Y26	Z26	X27	Y27	Z27	X28	Y28	Z28	X29	Y29	Z29	X30	Y30	Z30	X31	Y31	Z31	X32	Y32	Z32	X33	Y33	Z33	X34	Y34	Z34	X35	Y35	Z35	X36	Y36	Z36	X37	Y37	Z37	X38	Y38	Z38	X39	Y39	Z39	X40	Y40	Z40	X41	Y41	Z41	X42	Y42	Z42	X43	Y43	Z43	X44	Y44	Z44	X45	Y45	Z45	X46	Y46	Z46	X47	Y47	Z47	X48	Y48	Z48	X49	Y49	Z49	X50	Y50	Z50	X51	Y51	Z51	X52	Y52	Z52	X53	Y53	Z53	

269	2.68	-390.181640625	994.538330078125	277.564697265625	-558.3552856445312	995.8568725585938	250.2397613525391	-484.7541198730469	1058.2353515625	260.8589782714844	-407.3009338378906	1247.667602539062	7.960304737091064	-498.24658203125	1189.324462890625	265.803955078125	-473.9439392089844	1455.685302734375	201.9112548828125	-413.0359497070312	1362.861938476562	34.9025764465332	-430.1134643554688	1316.98095703125	288.9736328125	-575.5673828125	1420.826049804688	191.4937744140625	-610.094970703125	1427.332885742188	72.26007843017578	-697.9849853515625	1308.356567382812	64.65612030029297	-735.9033203125	1101.034301757812	25.32459449768066	-672.06005859375	1070.498046875	107.2441101074219	-642.0179443359375	892.2767944335938	-100.8955001831055	-711.0870971679688	864.375	-61.2010383605957	-735.6885375976562	998.17626953125	-18.64771842956543	-606.2576293945312	722.2118530273438	-156.6063537597656	-695.4732666015625	797.2919311523438	-115.5542449951172	-636.5191650390625	822.4102172851562	-147.0914459228516	-291.373046875	1414.904907226562	204.6667785644531	-240.9440307617188	1351.929321289062	245.4454193115234	-212.0037231445312	1105.693237304688	328.9570617675781	-283.3838806152344	1067.068115234375	269.8094177246094	-152.3534240722656	854.2489624023438	193.6273803710938	-140.8455352783203	838.3175048828125	278.7488403320312	-189.2073059082031	1023.420959472656	328.3529663085938	-165.8292541503906	672.6150512695312	175.7885284423828	-131.81640625	755.58984375	168.6671905517578	-115.2990417480469	749.7720947265625	245.0689392089844	-510.5619506835938	1643.023803710938	77.03191375732422	-295.9546508789062	1647.81982421875	81.08879089355469	-364.8682556152344	1663.019653320312	-23.274658203125	-429.5037536621094	1618.704956054688	185.0933074951172	-634.47314453125	937.0772094726562	135.0579681396484	-301.2533874511719	922.9385986328125	222.0566558837891	-299.8858947753906	944.616943359375	95.97298431396484	-562.47265625	938.6895141601562	33.4519157409668	-623.0579833984375	473.037841796875	162.0084381103516	-643.7559814453125	620.8984985351562	154.290771484375	-716.218017578125	92.98566436767578	459.5291137695312	-687.6080932617188	281.5577392578125	320.5626525878906	-693.4287109375	41.61516952514648	275.2327575683594	-644.2103271484375	45.84000015258789	319.7605895996094	-746.0864868164062	43.58788681030273	366.9569091796875	-644.88330078125	119.0023040771484	513.1152954101562	-300.8556823730469	509.8838195800781	2.928218841552734	-273.3507080078125	764.3675537109375	101.8850173950195	-353.6804809570312	35.09682846069336	-62.08083343505859	-305.1503295898438	384.5029602050781	-13.87815856933594	-283.3759155273438	79.85233306884766	-257.5682067871094	-344.7401123046875	68.22506713867188	-229.7401733398438	-279.8459167480469	57.83344268798828	-156.0387420654297	-425.48046875	34.70736312866211	-53.98209381103516	
270	2.69	-387.5581970214844	996.387451171875	268.7822875976562	-555.4173583984375	997.2752075195312	238.9454345703125	-481.807373046875	1059.180786132812	250.2551422119141	-400.1650085449219	1249.261474609375	-0.8160095810890198	-494.9610290527344	1190.527587890625	255.8788604736328	-469.4326171875	1456.78955078125	192.6771545410156	-406.2722778320312	1364.376831054688	26.38398361206055	-426.9368286132812	1317.979370117188	280.1637878417969	-570.938720703125	1422.219970703125	180.8557586669922	-603.812255859375	1428.878295898438	61.13899612426758	-691.4417724609375	1309.966186523438	52.66790771484375	-728.9877319335938	1102.517822265625	14.15270805358887	-665.584716796875	1072.408081054688	96.55437469482422	-635.7509765625	892.4559936523438	-110.2881088256836	-704.905517578125	865.039794921875	-70.42421722412109	-729.0978393554688	999.3468017578125	-29.03607368469238	-600.3564453125	721.9707641601562	-164.8074951171875	-689.4577026367188	797.49658203125	-124.2436828613281	-630.40869140625	822.2626342773438	-155.9794311523438	-286.9574584960938	1416.158935546875	197.8955230712891	-236.9913787841797	1352.91552734375	239.0786437988281	-209.4314727783203	1106.063598632812	321.2411499023438	-280.7630310058594	1067.834228515625	261.652099609375	-148.627197265625	854.72900390625	186.4370422363281	-138.4866180419922	838.7183837890625	271.7000427246094	-187.0046844482422	1023.84228515625	320.7064514160156	-161.9426727294922	673.0961303710938	168.27685546875	-127.8667755126953	756.0516357421875	161.7314910888672	-112.4874420166016	750.18701171875	238.3931427001953	-504.7178039550781	1644.43603515625	68.00676727294922	-290.1296691894531	1649.136474609375	74.27978515625	-357.9666442871094	1664.437133789062	-30.75424957275391	-424.6450805664062	1620.027099609375	176.9205169677734	-629.7505493164062	938.198974609375	122.6694717407227	-297.9442443847656	924.6693725585938	214.7349395751953	-294.620849609375	946.2557983398438	88.75090026855469	-556.0560913085938	939.7992553710938	22.44869613647461	-619.7510986328125	472.4616394042969	146.4415130615234	-639.555908203125	621.0281982421875	139.5895843505859	-717.86767578125	100.081184387207	454.6204833984375	-687.248291015625	285.5401611328125	310.04248046875	-693.6154174804688	41.61122512817383	276.2097778320312	-644.754638671875	46.40232467651367	318.9179992675781	-747.0103759765625	45.20360946655273	364.8892517089844	-646.6582641601562	129.0374908447266	506.6353759765625	-296.7572937011719	511.2591857910156	-4.732086658477783	-268.8588256835938	765.6973266601562	94.37400054931641	-352.9110107421875	35.39803695678711	-63.06420135498047	-301.5699768066406	385.2565307617188	-21.16186904907227	-284.6258239746094	75.67847442626953	-260.64404296875	-345.6772766113281	65.14369201660156	-231.7031707763672	-280.0071716308594	55.95536804199219	-158.4667205810547	-424.6539306640625	35.67696380615234	-54.30464935302734	
271	2.7	-384.7388000488281	998.2386474609375	260.0753784179688	-552.219482421875	998.8027954101562	227.7366638183594	-478.6051025390625	1060.2470703125	239.7480621337891	-392.9701232910156	1251.013427734375	-9.520341873168945	-491.4319152832031	1191.829467773438	245.9523315429688	-464.9132690429688	1458.000244140625	183.4581146240234	-399.5050354003906	1366.035278320312	17.94213485717773	-423.6315002441406	1319.098876953125	271.3148803710938	-566.2454223632812	1423.707641601562	170.2697448730469	-597.483154296875	1430.54443359375	50.09775543212891	-684.843994140625	1311.720458984375	40.73883819580078	-721.9689331054688	1104.127685546875	3.121633291244507	-658.9739379882812	1074.49853515625	85.94195556640625	-629.52099609375	892.6195678710938	-119.3962020874023	-698.7568359375	865.7843017578125	-79.32997131347656	-722.457763671875	1000.637939453125	-39.21637725830078	-594.5476684570312	721.5822143554688	-172.4248809814453	-683.5140380859375	797.6752319335938	-132.4999694824219	-624.3646850585938	822.0166625976562	-164.4813232421875	-282.5602722167969	1417.654174804688	191.0854034423828	-233.014892578125	1354.202880859375	232.6805572509766	-206.8875579833984	1106.779418945312	313.5860595703125	-278.0951538085938	1068.965942382812	253.5263671875	-144.9618988037109	855.5464477539062	179.2335357666016	-136.1790924072266	839.4426879882812	264.6001892089844	-184.8342895507812	1024.576904296875	313.1189880371094	-158.2487030029297	673.9014282226562	160.761474609375	-124.0445861816406	756.8048095703125	154.7689819335938	-109.795051574707	750.9060668945312	231.6703643798828	-498.8456420898438	1645.955444335938	58.96810531616211	-284.2656860351562	1650.483032226562	67.54219818115234	-350.9739685058594	1665.9033203125	-38.17050552368164	-419.7802124023438	1621.439331054688	168.770263671875	-624.7335815429688	939.4769897460938	110.3723526000977	-294.4565124511719	926.4070434570312	207.5107879638672	-289.2099914550781	947.9156494140625	81.69328308105469	-549.4022827148438	941.1002807617188	11.56461811065674	-616.2750244140625	471.8779296875	129.4814300537109	-635.119140625	621.1563110351562	123.977409362793	-719.5296630859375	107.9883193969727	448.5934753417969	-686.7758178710938	289.8128356933594	298.1655883789062	-693.8987426757812	41.47059631347656	277.1295776367188	-645.3961791992188	47.17329788208008	317.7515869140625	-748.042236328125	47.3229866027832	362.3419189453125	-648.4842529296875	139.9413604736328	498.7693786621094	-292.8154602050781	512.522216796875	-12.12424850463867	-264.3709106445312	766.9188842773438	87.02771759033203	-352.2246704101562	35.68545150756836	-63.92362594604492	-298.1585388183594	385.9027404785156	-28.01246452331543	-285.4427795410156	71.84641265869141	-263.1574096679688	-346.2264099121094	62.40084457397461	-233.3205718994141	-279.9813842773438	54.36566543579102	-160.3980560302734	-423.9249267578125	36.54823684692383	-54.64677429199219	
272	2.71	-381.7267761230469	999.9774780273438	251.477783203125	-548.77978515625	1000.316467285156	216.6693878173828	-475.1595764160156	1061.374267578125	229.4392700195312	-385.7565612792969	1252.824462890625	-18.12265777587891	-487.6719055175781	1193.142700195312	236.0553436279297	-460.3903503417969	1459.243041992188	174.2879333496094	-392.7735595703125	1367.7431640625	9.590287208557129	-420.1810302734375	1320.26708984375	262.446533203125	-561.502685546875	1425.2021484375	159.780517578125	-591.1370849609375	1432.2373046875	39.1844367980957	-678.2377319335938	1313.520751953125	28.90988159179688	-714.9070434570312	1105.773315429688	-7.77982234954834	-652.3202514648438	1076.6494140625	75.43413543701172	-623.3179931640625	892.7235107421875	-128.2550964355469	-692.6532592773438	866.5537719726562	-87.99754333496094	-715.7947387695312	1001.972229003906	-49.22817230224609	-588.79296875	721.0131225585938	-179.4948425292969	-677.6242065429688	797.7849731445312	-140.4012603759766	-618.359375	821.6331787109375	-172.6389770507812	-278.1889343261719	1419.295288085938	184.2369995117188	-229.0219573974609	1355.701416015625	226.2549896240234	-204.3590240478516	1107.76318359375	306.0568542480469	-275.3651733398438	1070.382690429688	245.4936981201172	-141.3645477294922	856.6417846679688	172.0273590087891	-133.9043121337891	840.4220581054688	257.4572448730469	-182.6754913330078	1025.543212890625	305.6461181640625	-154.7806854248047	674.9761962890625	153.2265319824219	-120.3693084716797	757.7948608398438	147.7727508544922	-107.2197875976562	751.8626098632812	224.8854370117188	-492.9784545898438	1647.504760742188	49.93024444580078	-278.392578125	1651.784301757812	60.90735626220703	-343.9135437011719	1667.350708007812	-45.49530029296875	-414.9531860351562	1622.853881835938	160.6546783447266	-619.4551391601562	940.8102416992188	98.22564697265625	-290.811767578125	928.0340576171875	200.3961639404297	-283.6531677246094	949.51220703125	74.79265594482422	-542.5468139648438	942.5485229492188	0.8240401744842529	-612.552978515625	471.298583984375	111.2309722900391	-630.4506225585938	621.2527465820312	107.5056838989258	-721.1504516601562	116.7138061523438	441.2882995605469	-686.085693359375	294.3075256347656	284.9054870605469	-694.2671508789062	41.11224365234375	277.6775512695312	-646.1272583007812	48.24147796630859	316.0704345703125	-749.12646484375	50.11526870727539	359.1588439941406	-650.3330078125	151.6180114746094	489.4585571289062	-289.1223754882812	513.5586547851562	-19.14068603515625	-259.9205322265625	767.9518432617188	79.87165832519531	-351.6606140136719	35.96761322021484	-64.68178558349609	-294.9743041992188	386.3639221191406	-34.32509231567383	-285.7831115722656	68.25440979003906	-265.1792602539062	-346.3733215332031	59.90777206420898	-234.6514282226562	-279.7834167480469	53.02269744873047	-161.8665161132812	-423.3310546875	37.31780242919922	-55.03908538818359	
